<svg data-v-8702752c="" version="1.0" xmlns="http://www.w3.org/2000/svg" xmlns:xlink="http://www.w3.org/1999/xlink" width="100%" height="100%" viewBox="0 0 340.000000 250.000000" preserveAspectRatio="xMidYMid meet" color-interpolation-filters="sRGB" class="el-tooltip" style="margin: auto;">
	<!-- <rect data-v-8702752c="" x="0" y="0" width="100%" height="100%" fill="#ffffff" fill-opacity="1" class="background"></rect>  -->
	<!-- <rect data-v-8702752c="" x="0" y="0" width="100%" height="100%" fill="url(#watermark)" fill-opacity="1" class="watermarklayer"></rect>  -->
<g data-v-8702752c="" fill="#35495e" class="icon-text-wrapper icon-svg-group iconsvg" transform="translate(28.236129760742188,95.51064682006836)"><g class="iconsvg-imagesvg" transform="translate(0,0)"><g><rect fill="#35495e" fill-opacity="0" stroke-width="2" x="0" y="0" width="58.80000000000001" height="58.97870547759713" class="image-rect"></rect> <svg x="0" y="0" width="58.80000000000001" height="58.97870547759713" filtersec="colorsb7263329185" class="image-svg-svg primary"><svg xmlns="http://www.w3.org/2000/svg" viewBox="-4.76837158203125e-7 0 23.6561279296875 23.728107452392578"><defs><linearGradient id="06c68952-1b21-41b5-a2a9-db16ee97284e" x1="8.03" y1="1.32" x2="9.44" y2="20.2" gradientUnits="userSpaceOnUse"><stop offset="0" stop-color="#35495e"></stop><stop offset="1" stop-color="#35495e"></stop></linearGradient><linearGradient id="8d0c1b7a-eaaa-492c-8173-906c91d6e5ba" x1="15.5" y1="4.12" x2="15.78" y2="23.7" gradientUnits="userSpaceOnUse"><stop offset="0" stop-color="#41b883"></stop><stop offset="1" stop-color="#41b883"></stop></linearGradient><linearGradient id="36e60ad0-ca41-476f-b630-35743d5bd312" x1="2.74" y1="6.52" x2="2.6" y2="17.79" gradientUnits="userSpaceOnUse"><stop offset="0" stop-color="#41b883"></stop><stop offset="1" stop-color="#35495e"></stop></linearGradient><linearGradient id="488d05b8-05b2-4269-bd42-74c27308d407" x1="20.91" y1="9.53" x2="22.18" y2="21.23" gradientUnits="userSpaceOnUse"><stop offset="0" stop-color="#35495e"></stop><stop offset="1" stop-color="#41b883"></stop></linearGradient><linearGradient id="6d9a5371-a4cd-4a54-b9df-7fef5cc31aa8" x1="21.33" y1="9.49" x2="22.59" y2="21.19" gradientUnits="userSpaceOnUse"><stop offset="0" stop-color="#35495e"></stop><stop offset="1" stop-color="#41b883"></stop></linearGradient><linearGradient id="2f5c4ad3-3738-42fa-bb58-d7d8e9d2174d" x1="2.59" y1="6.52" x2="2.45" y2="17.79" gradientUnits="userSpaceOnUse"><stop offset="0" stop-color="#41b883"></stop><stop offset="1" stop-color="#35495e"></stop></linearGradient><linearGradient id="e14823fd-73d0-420c-baee-72db285dbe45" x1="15.71" y1="4.12" x2="15.99" y2="23.7" gradientUnits="userSpaceOnUse"><stop offset="0" stop-color="#41b883"></stop><stop offset="1" stop-color="#41b883"></stop></linearGradient><linearGradient id="fe00da75-9aa6-439d-bb7e-7cabebf0a168" x1="8.56" y1="1.28" x2="9.97" y2="20.16" gradientUnits="userSpaceOnUse"><stop offset="0" stop-color="#35495e"></stop><stop offset="1" stop-color="#35495e"></stop></linearGradient></defs><g><g><path d="M12.45 8.88c0 1-.84 6.93-1.74 13a2.14 2.14 0 0 1-4.24 0c-.9-6-1.74-12-1.74-13a3.86 3.86 0 1 1 7.72 0z" fill="url(#06c68952-1b21-41b5-a2a9-db16ee97284e)"></path><path d="M12.45 20.4c0-.85.72-5.89 1.48-11a1.82 1.82 0 0 1 3.6 0c.76 5.14 1.48 10.18 1.48 11a3.28 3.28 0 0 1-6.56 0z" fill="url(#8d0c1b7a-eaaa-492c-8173-906c91d6e5ba)"></path><path d="M0 21.12c0-.66.56-4.58 1.15-8.58a1.42 1.42 0 0 1 2.8 0c.6 4 1.16 7.92 1.16 8.58a2.56 2.56 0 0 1-5.11 0z" fill="url(#36e60ad0-ca41-476f-b630-35743d5bd312)"></path><path d="M23.63 15.91v.15c-.06.81-.47 3.71-.91 6.65a1.12 1.12 0 0 1-2.22 0c-.47-3.17-.91-6.28-.91-6.81a1.83 1.83 0 0 1 .1-.62 2 2 0 0 1 3.95.62z" fill="url(#488d05b8-05b2-4269-bd42-74c27308d407)"></path><path d="M23.08 12.05a1.48 1.48 0 1 1-1.48-1.48 1.47 1.47 0 0 1 1.48 1.48z" fill="url(#6d9a5371-a4cd-4a54-b9df-7fef5cc31aa8)"></path><path d="M4 9.51A1.48 1.48 0 1 1 2.55 8 1.47 1.47 0 0 1 4 9.51z" fill="url(#2f5c4ad3-3738-42fa-bb58-d7d8e9d2174d)"></path><circle cx="15.73" cy="5.72" r="1.8" fill="url(#e14823fd-73d0-420c-baee-72db285dbe45)"></circle><path d="M10.89 2.26A2.26 2.26 0 1 1 8.63 0a2.27 2.27 0 0 1 2.26 2.26z" fill="url(#fe00da75-9aa6-439d-bb7e-7cabebf0a168)"></path></g></g></svg></svg> <!----></g></g> <g transform="translate(76.79999923706055,10.689153671264648)"><g data-gra="path-name" fill-rule="" class="tp-name iconsvg-namesvg"><g transform="scale(1.2200000000000002)"><g><path d="M7.55-24.42L1.27 2.52L1.27 2.52L1.27 2.52Q4.02 2.52 6.29 0.69Q8.56-1.14 9.28-3.96L9.28-3.96L14.28-25.46L8.83-25.46Q8.37-25.46 8.01-25.17Q7.65-24.87 7.55-24.42L7.55-24.42ZM24.51-0.59L28.27-27.49L28.27-27.49L22.98-27.49Q22.36-27.49 21.85-27.05Q21.34-26.61 21.25-25.95L21.25-25.95L17.81-1.54Q17.72-0.98 17.32-0.69L17.32-0.69Q16.90-0.42 16.34-0.42L16.34-0.42L14.15-0.42Q13.43-0.42 12.88 0.07Q12.32 0.56 12.19 1.31L12.19 1.31L11.93 3.14L20.13 3.14Q20.89 3.14 21.61 2.91L21.61 2.91Q22.36 2.65 22.95 2.16L22.95 2.16Q23.53 1.67 23.96 0.98L23.96 0.98Q24.38 0.29 24.51-0.59L24.51-0.59ZM34.94-23.73L33.90-2.03L33.90-2.03Q33.86-0.03 35.07 1.24Q36.28 2.52 38.24 2.52L38.24 2.52L40.17 2.52L41.51-25.46L36.74-25.46Q36.05-25.46 35.53-24.96Q35.01-24.45 34.94-23.73L34.94-23.73ZM76.29-27.55L75.93-24.94L75.93-24.94L84.17-24.94L81.06-2.12Q80.87-0.65 79.72 0.39L79.72 0.39Q78.58 1.44 77.14 1.44L77.14 1.44L73.25 1.44L73.61-1.14L73.87-1.14Q74.82-1.14 74.95-2.12L74.95-2.12L77.69-22.36L75.57-22.36L72.40 1.21Q72.27 2.09 71.62 2.68Q70.96 3.27 70.11 3.27L70.11 3.27L65.63 3.27L69.07-22.36L67.89-22.36L68.25-24.94L69.43-24.94L69.62-26.28Q69.69-26.84 70.08-27.19Q70.47-27.55 71.03-27.55L71.03-27.55L76.29-27.55ZM46.25-0.36L43.34-0.36L43.34-0.36L46.51-23.66Q46.64-24.61 47.31-25.22Q47.98-25.82 48.87-25.82L48.87-25.82L52.33-25.82L49.26-3.07Q49.09-1.86 48.24-1.11Q47.39-0.36 46.25-0.36L46.25-0.36ZM62.72-24.94L67.30-24.94L67.30-24.94L66.94-22.36L66.78-21.28L64.06-1.18Q63.90-0.03 63.10 0.70Q62.30 1.44 61.19 1.44L61.19 1.44L57.66 1.44L60.99-23.37Q61.09-24.06 61.58-24.50Q62.07-24.94 62.72-24.94L62.72-24.94ZM49.55 3.27L49.55 3.27L49.55 3.27L53.96-25.95Q54.10-26.67 54.60-27.11Q55.11-27.55 55.76-27.55L55.76-27.55L60.34-27.55L56.61-3.01Q56.15-0.26 54.18 1.50Q52.20 3.27 49.55 3.27L49.55 3.27Z" transform="translate(-1.2747548548356087, 27.554316477600462)"></path></g> <!----> <!----> <!----> <!----> <!----> <!----> <g data-gra="path-name-1" fill="#41b883" transform="translate(85.9000015258789,0)"><path d="M36.94-10.36L27.36-10.36L27.36-10.36L25.99 0.03L39.45 0.03L39.29 1.18Q39.16 2.09 38.54 2.68Q37.92 3.27 37.07 3.27L37.07 3.27L0.62 3.27L0.75 2.12Q0.88 1.21 1.52 0.62Q2.16 0.03 3.01 0.03L3.01 0.03L5.03 0.03L6.86-13.86Q7.03-14.94 7.78-15.64Q8.53-16.34 9.54-16.34L9.54-16.34L13.83-16.34L11.64 0.03L19.38 0.03L22.00-19.74Q22.13-20.62 22.73-21.20Q23.34-21.77 24.15-21.77L24.15-21.77L28.86-21.77L27.78-13.60L39.98-13.60L39.91-13.14Q39.71-11.93 38.88-11.15Q38.05-10.36 36.94-10.36L36.94-10.36ZM39.19-27.06L39.19-27.06L39.19-27.06Q39.91-26.61 40.14-25.69L40.14-25.69L41.90-18.21L37.85-18.21Q36.67-18.21 35.76-18.97Q34.84-19.74 34.55-21.02L34.55-21.02L33.76-24.42Q33.63-24.87 33.14-24.87L33.14-24.87L13.92-24.87Q13.70-24.87 13.47-24.74L13.47-24.74Q13.27-24.61 13.17-24.42L13.17-24.42L11.18-20.23Q10.07-18.21 8.14-18.21L8.14-18.21L3.53-18.21L7.16-25.69Q7.58-26.61 8.43-27.06L8.43-27.06Q9.25-27.55 10.20-27.55L10.20-27.55L37.59-27.55Q38.50-27.55 39.19-27.06ZM70.18-24.68L70.08-23.89L70.08-23.89L69.20-17.36L82.79-17.36L82.43-14.55L76.71-4.28L79.79 3.27L76.58 3.27Q74.92 3.27 74.13 1.63L74.13 1.63L73.54 0.16L73.18 0.78Q71.58 3.27 69.23 3.27L69.23 3.27L60.01 3.27L64.13-27.55L70.57-27.55L70.18-24.68ZM68.41-11.34L66.58 2.35L66.58 2.35L70.86-5.30L68.41-11.34ZM73.97-9.61L76.78-14.74L76.78-14.74L68.87-14.74L68.64-13.17L72.01-13.17Q72.43-13.17 72.66-12.78L72.66-12.78L73.97-9.61ZM53.70-24.94L54.03-27.55L54.03-27.55L63.15-27.55L59.49-0.07Q59.29 1.27 58.25 2.26L58.25 2.26Q57.17 3.27 55.93 3.27L55.93 3.27L51.35 3.27L51.71 0.65L52.30 0.65Q52.76 0.65 53.02 0.33L53.02 0.33Q53.31 0 53.34-0.56L53.34-0.56L54.19-6.93L50.50-6.93L49.62-0.07Q49.45 1.27 48.44 2.26L48.44 2.26Q47.43 3.27 46.15 3.27L46.15 3.27L43.47 3.27L47.59-27.55L53.18-27.55L52.20-19.71L55.89-19.71L56.61-24.94L53.70-24.94ZM50.83-9.54L54.55-9.54L54.55-9.54L55.57-17.09L51.84-17.09L50.83-9.54ZM70.93-24.68L71.32-27.55L71.32-27.55L84.17-27.55L83.48-22.46Q83.35-21.57 82.96-20.89L82.96-20.89Q82.56-20.17 82.01-19.68L82.01-19.68Q81.42-19.15 80.70-18.89L80.70-18.89Q80.02-18.66 79.26-18.66L79.26-18.66L72.60-18.66L72.76-19.94Q72.86-20.49 73.28-20.89L73.28-20.89Q73.71-21.28 74.23-21.28L74.23-21.28L75.90-21.28Q76.19-21.28 76.45-21.47L76.45-21.47Q76.71-21.70 76.78-22.03L76.78-22.03L77.11-24.68L70.93-24.68Z" transform="translate(-0.6210344164583734, 27.554316477600462)"></path></g></g></g> <!----></g></g><defs v-gra="od"></defs></svg>